PathFileType	4	(X/Y/Z)	C:/Users/beibeiliu/ov580/test_trc/User2\sequence.15_training_dense_left.trc
DataRate	CameraRate	NumFrames	NumMarkers	Units	OrigDataRate	OrigDataStartFrame	OrigNumFrames
120	120	7	19	mm	120	29	86
Frame#	Time	ThumbCMC			ThumbMCP			ThumbIP			ThumbTip			IndexMCP			IndexPIP			IndexTip			MiddleMCP			MiddlePIP			MiddleTip			RingMCP			RingPIP			RingTip			PinkyMCP			PinkyPIP			PinkyTip			BackHand1			BackHand2			BackHand3	
		X0	Y0	Z0	X1	Y1	Z1	X2	Y2	Z2	X3	Y3	Z3	X4	Y4	Z4	X5	Y5	Z5	X6	Y6	Z6	X7	Y7	Z7	X8	Y8	Z8	X9	Y9	Z9	X10	Y10	Z10	X11	Y11	Z11	X12	Y12	Z12	X13	Y13	Z13	X14	Y14	Z14	X15	Y15	Z15	X16	Y16	Z16	X17	Y17	Z17	X18	Y18	Z18	
28	0.233333	-232.477	40.7249	-16.5901	-231.808	29.3264	-52.5228	-246.786	25.7662	-87.5166	-263.095	20.3877	-106.661	-271.737	100.491	-52.6738	-275.582	118.71	-72.7708	-281.242	137.023	-99.5946	-293.723	92.5838	-56.9529	-302.393	114.049	-85.2728	-309.572	125.502	-109.637	-311.507	70.7659	-67.4801	-314.613	81.435	-94.9899	-313.255	85.281	-121.752	-310.279	35.3192	-69.8046	-291.747	21.1645	-95.8448	-265.142	5.28443	-92.7484	-305.121	45.0639	-15.2195	-294.351	29.1096	18.5072	-271.855	58.4541	4.78895	
29	0.241667	-213.482	24.9321	-11.5133	-217.13	16.6173	-50.804	-227.63	14.084	-86.8513	-250.346	14.9526	-105.193	-229.877	93.3111	-52.4339	-222.72	113.434	-72.6749	-218.182	132.894	-95.8469	-258.029	98.726	-57.0316	-257.102	119.279	-82.3018	-257.35	138.629	-109.93	-277.331	81.4752	-64.9847	-279.419	91.8985	-92.0858	-280.957	97.2419	-119.779	-286.941	48.0245	-67.2865	-276.346	27.8956	-93.8484	-258.241	3.269	-88.7493	-274.591	55.753	-10.0924	-273.612	41.3076	17.6324	-241.678	58.7123	5.67219	
30	0.25	-203.045	20.8315	-9.736	-201.679	5.55105	-48.5164	-219.264	0.91264	-76.4709	-242.006	3.85727	-96.0214	-203.361	84.5867	-58.3477	-201.203	97.5071	-78.0961	-195.247	115.898	-104.719	-236.556	87.5167	-60.2496	-234.822	107.928	-88.6409	-234.647	122.085	-114.812	-258.884	75.8757	-68.3618	-262.285	82.3691	-96.642	-255.951	85.8094	-124.881	-272.954	41.8982	-68.1831	-265.667	19.5356	-88.8939	-248.474	-10.629	-79.9386	-262.688	57.7786	-12.7941	-260.237	44.4207	20.0858	-226.384	57.2744	3.85769	
31	0.258333	-190.473	14.691	-3.17692	-189.505	-9.08314	-40.0905	-208.069	-16.984	-66.8617	-229.783	-20.6351	-87.8999	-198.029	67.756	-66.4515	-189.294	76.4825	-87.8389	-184.309	88.0682	-114.599	-225.68	72.4828	-70.6907	-224.806	83.9428	-99.8731	-223.846	96.207	-128.573	-253.106	54.0185	-70.0327	-253.037	57.0911	-96.7084	-251.436	56.674	-128.843	-267.223	23.5337	-62.4278	-256.871	-5.10021	-82.0701	-240.646	-24.6475	-66.7638	-251.732	48.8625	-12.9548	-247.687	41.6745	21.1905	-212.329	52.1099	0.332888	
32	0.266667	-182.16	12.2413	-1.53356	-178.633	-18.1381	-28.7041	-193.486	-38.9064	-56.3163	-218.746	-44.5769	-69.9259	-193.99	48.4856	-68.6883	-190.035	53.3878	-97.9516	-188.047	59.5545	-124.914	-226.26	47.5391	-75.0365	-226.801	54.5505	-106.556	-226.119	58.9541	-137.819	-246.165	29.7139	-73.2575	-250.389	25.1168	-99.2643	-248.487	17.843	-128.49	-259.885	-2.99411	-59.9076	-241.146	-28.7324	-70.9415	-222.469	-39.813	-45.51	-248.352	35.4152	-16.8579	-243.002	36.2699	18.8105	-214.813	44.7171	-2.45407	
33	0.275	-174.32	18.9335	0.885873	-165.717	-17.7507	-20.9856	-176.191	-47.0658	-45.0981	-196.566	-59.3219	-53.6779	-197.019	36.578	-74.6806	-192.133	38.4161	-102.615	-187.812	39.6087	-130.337	-222.499	29.6364	-81.9657	-224.414	28.2529	-111.325	-224.574	26.844	-140.35	-238.462	5.4347	-76.672	-239.485	-5.23642	-99.1612	-235.638	-17.4649	-127.78	-244.466	-27.6609	-57.406	-219.192	-47.1065	-56.5389	-202.513	-47.3327	-29.8714	-242.808	24.5028	-20.4524	-243.811	31.6907	10.6834	-216.306	44.5804	-8.95866	
34	0.283333	-177.327	31.3032	2.13789	-156.136	-4.97032	-11.9386	-157.443	-36.021	-29.9874	-175.757	-56.394	-41.7022	-195.992	37.3683	-75.0558	-190.369	35.0907	-107.327	-187.822	33.7135	-128.962	-220.36	22.0044	-84.3709	-220.146	14.5589	-115.058	-217.962	8.69244	-145.843	-232.094	-6.6268	-73.6848	-224.611	-18.1355	-99.5837	-217.156	-34.3749	-123.371	-227.646	-34.7316	-46.5164	-194.124	-48.0655	-41.773	-182.875	-31.294	-16.8073	-241.58	18.1195	-21.858	-246.993	28.5984	12.1483	-222.2	44.65	-12.1587	
